<svg width="1177" height="304" viewBox="0 0 1177 304" fill="none" xmlns="http://www.w3.org/2000/svg">
<path d="M0 0C60.39 0 120.78 0 183 0C183 34.98 183 69.96 183 106C173.121 106.021 163.241 106.041 153.062 106.062C149.939 106.072 146.816 106.081 143.598 106.09C141.139 106.093 138.681 106.096 136.223 106.098C134.932 106.103 133.642 106.108 132.312 106.113C130.485 106.113 130.485 106.113 128.621 106.114C127.026 106.117 127.026 106.117 125.398 106.12C123 106 123 106 122 105C121.891 103.556 121.844 102.108 121.824 100.66C121.71 84.1177 121.71 84.1177 113.75 70.125C106.302 63.3187 98.4543 61.625 88.5781 61.7266C80.0392 62.3791 73.7236 66.8102 68 73C62.2682 80.9185 62.0523 89.5602 63 99C65.5942 107.634 70.2106 113.553 78 118C88.1703 122.447 99.7835 121.48 110.637 121.512C112.492 121.527 114.347 121.544 116.203 121.562C123.031 121.62 129.859 121.652 136.688 121.688C159.612 121.842 159.612 121.842 183 122C183 182.06 183 242.12 183 304C122.61 304 62.22 304 0 304C0 269.02 0 234.04 0 198C20.13 198 40.26 198 61 198C61.33 204.6 61.66 211.2 62 218C64.2173 226.294 66.9687 232.64 74.2461 237.5C82.6194 242.34 91.2653 243.628 100.828 241.316C109.949 237.945 114.941 233.113 119.055 224.367C121.968 217.073 122.116 209.217 119.438 201.812C115.326 192.788 109.259 187.468 100 184C95.2641 182.756 90.5737 182.827 85.7117 182.795C84.7694 182.785 83.8271 182.775 82.8563 182.764C79.8144 182.733 76.7725 182.708 73.7305 182.684C71.8492 182.665 69.9678 182.646 68.0865 182.627C61.1202 182.559 54.1539 182.499 47.1875 182.438C31.6156 182.293 16.0438 182.149 0 182C0 121.94 0 61.88 0 0Z" fill="#DEEC29"/>
<path d="M198 0C218.13 0 238.26 0 259 0C259.009 6.51597 259.019 13.0319 259.028 19.7454C259.062 41.2669 259.117 62.7884 259.184 84.3099C259.224 97.3592 259.256 110.408 259.271 123.458C259.284 134.834 259.311 146.209 259.355 157.585C259.377 163.606 259.393 169.628 259.392 175.649C259.391 181.322 259.409 186.994 259.441 192.667C259.45 194.744 259.451 196.821 259.446 198.898C259.355 218.103 259.355 218.103 268.938 234.277C275.533 239.786 283.202 242.372 291.762 242.211C300.558 241.382 307.48 237.802 313.5 231.406C319.165 224.257 320.452 215.47 320.399 206.597C320.409 205.261 320.409 205.261 320.419 203.898C320.437 200.944 320.435 197.991 320.432 195.037C320.441 192.907 320.452 190.778 320.463 188.648C320.491 182.888 320.5 177.129 320.506 171.369C320.516 165.342 320.542 159.315 320.566 153.288C320.61 141.884 320.638 130.481 320.661 119.077C320.689 106.09 320.732 93.1038 320.778 80.1171C320.871 53.4114 320.94 26.7058 321 0C340.8 0 360.6 0 381 0C381 100.32 381 200.64 381 304C320.61 304 260.22 304 198 304C198 203.68 198 103.36 198 0Z" fill="#DEEC29"/>
<path d="M396 0C416.13 0 436.26 0 457 0C457.056 9.89613 457.056 9.89613 457.113 19.9922C457.144 24.1849 457.175 28.3776 457.209 32.5703C457.263 39.2174 457.314 45.8645 457.346 52.5117C457.373 57.8741 457.413 63.2361 457.463 68.5983C457.48 70.6387 457.491 72.6791 457.498 74.7195C457.507 77.5892 457.535 80.4581 457.568 83.3276C457.566 84.1613 457.565 84.995 457.563 85.8539C457.726 96.1898 460.69 104.602 468 112C474.367 117.221 481.629 119.521 489.867 119.246C498.766 118.219 505.994 114.807 511.758 107.891C517.225 100.231 518.295 92.7467 518.319 83.5547C518.329 82.6464 518.339 81.7382 518.349 80.8024C518.38 77.8266 518.397 74.8509 518.414 71.875C518.433 69.8013 518.452 67.7277 518.473 65.6541C518.524 60.2159 518.564 54.7777 518.601 49.3394C518.648 42.8039 518.71 36.2684 518.769 29.733C518.857 19.822 518.927 9.91112 519 0C539.13 0 559.26 0 580 0C580.361 31.2473 580.361 31.2473 580.452 46.6762C580.502 55.0227 580.566 63.3684 580.679 71.7144C580.769 78.322 580.827 84.9291 580.847 91.5373C580.859 95.036 580.886 98.5329 580.952 102.031C581.024 105.938 581.026 109.844 581.022 113.752C581.054 114.909 581.086 116.066 581.12 117.257C581.031 124.941 581.031 124.941 578.023 128.032C575.739 129.577 573.491 130.826 571 132C570.103 132.521 569.206 133.043 568.282 133.58C567.552 133.965 566.822 134.35 566.07 134.746C565.256 135.191 564.441 135.637 563.602 136.096C561.934 136.999 560.259 137.89 558.578 138.768C553.259 141.706 553.259 141.706 549.918 146.617C548.683 151.169 549.155 154.563 550.688 158.982C552.558 161.857 554.829 162.937 557.812 164.602C558.667 165.085 558.667 165.085 559.538 165.579C561.353 166.605 563.176 167.615 565 168.625C566.822 169.644 568.643 170.667 570.462 171.692C572.11 172.621 573.764 173.54 575.418 174.459C578 176 578 176 580 178C580.246 180.214 580.246 180.214 580.241 183.024C580.245 184.618 580.245 184.618 580.249 186.245C580.238 188.001 580.238 188.001 580.227 189.793C580.227 191.023 580.228 192.252 580.228 193.518C580.227 196.894 580.217 200.27 580.203 203.646C580.19 207.172 580.189 210.698 580.187 214.224C580.181 220.904 580.164 227.583 580.144 234.262C580.12 242.611 580.109 250.96 580.098 259.309C580.078 274.206 580.038 289.103 580 304C559.87 304 539.74 304 519 304C518.974 297.414 518.948 290.828 518.922 284.043C518.897 279.855 518.87 275.667 518.84 271.479C518.792 264.84 518.748 258.202 518.729 251.564C518.714 246.208 518.679 240.852 518.632 235.497C518.617 233.46 518.609 231.423 518.608 229.386C518.597 215.484 518.388 202.532 508 192C501.604 186.798 494.386 184.479 486.133 184.754C477.245 185.779 469.951 189.18 464.242 196.145C458.926 203.682 457.704 210.387 457.681 219.424C457.666 220.8 457.666 220.8 457.651 222.205C457.62 225.219 457.603 228.232 457.586 231.246C457.567 233.344 457.548 235.441 457.527 237.539C457.476 243.044 457.436 248.55 457.399 254.055C457.352 260.669 457.29 267.283 457.231 273.897C457.143 283.931 457.073 293.966 457 304C436.87 304 416.74 304 396 304C396 203.68 396 103.36 396 0Z" fill="#DDEB29"/>
<path d="M596.12 0C656.84 0 717.56 0 780.12 0C780.12 100.32 780.12 200.64 780.12 304C719.4 304 658.68 304 596.12 304C596.12 203.68 596.12 103.36 596.12 0ZM666.12 70C660.929 76.2025 657.881 82.5524 657.852 90.7414C657.844 91.8627 657.835 92.984 657.826 94.1393C657.827 95.355 657.828 96.5707 657.829 97.8232C657.822 99.115 657.816 100.407 657.809 101.738C657.791 105.271 657.786 108.804 657.785 112.338C657.784 114.549 657.779 116.761 657.774 118.972C657.756 126.7 657.747 134.427 657.749 142.154C657.75 149.338 657.729 156.521 657.698 163.704C657.671 169.887 657.661 176.07 657.662 182.253C657.662 185.939 657.657 189.624 657.636 193.31C657.612 197.426 657.622 201.542 657.634 205.659C657.623 206.867 657.611 208.074 657.6 209.319C657.669 218.716 659.546 227.357 666.17 234.398C673.352 240.299 681.823 243.547 691.12 243C699.181 241.915 705.482 238.901 711.12 233C715.391 227.073 718.229 221.941 718.28 214.557C718.295 212.86 718.295 212.86 718.311 211.129C718.317 209.887 718.322 208.645 718.328 207.365C718.338 206.058 718.348 204.75 718.358 203.403C718.389 199.062 718.41 194.72 718.428 190.379C718.432 189.639 718.435 188.899 718.438 188.137C718.469 181.151 718.496 174.165 718.513 167.179C718.535 158.263 718.576 149.347 718.646 140.432C718.693 134.153 718.718 127.874 718.725 121.596C718.73 117.851 718.745 114.108 718.785 110.364C718.822 106.833 718.83 103.304 718.817 99.773C718.817 97.8787 718.846 95.9845 718.877 94.0905C718.8 84.91 716.512 77.0469 710.377 69.998C704.18 64.0857 696.319 61.377 687.881 60.9062C679.649 61.1857 672.26 64.576 666.12 70Z" fill="#DDEB29"/>
<path d="M795.12 0C814.92 0 834.72 0 855.12 0C855.176 11.4121 855.176 11.4121 855.233 23.0547C855.263 27.8854 855.294 32.7162 855.329 37.5469C855.383 45.208 855.434 52.869 855.466 60.5303C855.492 66.7096 855.533 72.8886 855.583 79.0678C855.599 81.4207 855.611 83.7737 855.617 86.1267C855.627 89.4322 855.655 92.7371 855.687 96.0425C855.686 97.0071 855.684 97.9716 855.683 98.9654C855.819 108.913 857.975 117.762 865.12 125C871.985 130.721 878.904 133.549 887.987 133.246C897.301 132.171 903.756 128.242 910.37 121.812C915.269 113.938 916.713 105.974 916.666 96.8372C916.681 95.2547 916.681 95.2547 916.697 93.6402C916.726 90.1936 916.728 86.7475 916.729 83.3008C916.744 80.8951 916.761 78.4894 916.779 76.0838C916.823 69.7825 916.843 63.4814 916.858 57.18C916.881 49.6031 916.933 42.0264 916.981 34.4496C917.049 22.9664 917.081 11.4836 917.12 0C937.25 0 957.38 0 978.12 0C978.12 64.35 978.12 128.7 978.12 195C957.99 195 937.86 195 917.12 195C917.12 230.97 917.12 266.94 917.12 304C896.66 304 876.2 304 855.12 304C855.12 268.03 855.12 232.06 855.12 195C835.32 195 815.52 195 795.12 195C795.12 130.65 795.12 66.3 795.12 0Z" fill="#DEEC29"/>
<path d="M993.12 0C1053.51 0 1113.9 0 1176.12 0C1176.12 100.32 1176.12 200.64 1176.12 304C1115.73 304 1055.34 304 993.12 304C993.12 203.68 993.12 103.36 993.12 0ZM1062.12 70C1056.93 76.2053 1053.88 82.5558 1053.85 90.7481C1053.84 91.8709 1053.84 92.9936 1053.83 94.1504C1053.83 95.3676 1053.83 96.5849 1053.83 97.8391C1053.82 99.1325 1053.82 100.426 1053.81 101.758C1053.79 105.296 1053.79 108.833 1053.79 112.37C1053.78 114.584 1053.78 116.798 1053.77 119.011C1053.76 126.744 1053.75 134.477 1053.75 142.209C1053.75 149.401 1053.73 156.592 1053.7 163.783C1053.67 169.971 1053.66 176.159 1053.66 182.347C1053.66 186.037 1053.66 189.726 1053.64 193.416C1053.61 197.535 1053.62 201.653 1053.63 205.773C1053.62 206.984 1053.61 208.195 1053.6 209.443C1053.65 216.538 1054.59 221.818 1058.12 228C1058.49 228.654 1058.86 229.309 1059.23 229.983C1063.04 236.412 1070.05 240.275 1077.06 242.438C1085.44 244.077 1093.86 242.385 1101.12 238C1109.14 232.377 1112.71 226.048 1114.71 216.61C1115.48 211.686 1115.41 206.759 1115.39 201.786C1115.4 200.594 1115.4 199.403 1115.41 198.175C1115.42 194.931 1115.42 191.687 1115.42 188.443C1115.42 185.723 1115.43 183.002 1115.43 180.281C1115.44 173.855 1115.44 167.428 1115.44 161.002C1115.43 154.402 1115.44 147.802 1115.46 141.202C1115.48 135.509 1115.49 129.816 1115.48 124.123C1115.48 120.735 1115.48 117.346 1115.5 113.958C1115.51 110.173 1115.5 106.388 1115.49 102.602C1115.5 101.5 1115.51 100.398 1115.52 99.2623C1115.44 88.4124 1114.04 77.9599 1106.12 70C1092.88 58.3669 1075.5 58.1841 1062.12 70Z" fill="#DEEC29"/>
</svg>
